<?xml version="1.0" encoding="UTF-8" standalone="no"?>
<svg
   xml:space="preserve"
   width="512"
   height="256"
   style="clip-rule:evenodd;fill-rule:evenodd;stroke-linejoin:round;stroke-miterlimit:2"
   version="1.1"
   id="svg17"
   sodipodi:docname="meshstellar.svg"
   inkscape:version="1.3.2 (091e20ef0f, 2023-11-25, custom)"
   xmlns:inkscape="http://www.inkscape.org/namespaces/inkscape"
   xmlns:sodipodi="http://sodipodi.sourceforge.net/DTD/sodipodi-0.dtd"
   xmlns="http://www.w3.org/2000/svg"
   xmlns:svg="http://www.w3.org/2000/svg"><defs
     id="defs17" /><sodipodi:namedview
     id="namedview17"
     pagecolor="#ffffff"
     bordercolor="#666666"
     borderopacity="1.0"
     inkscape:showpageshadow="2"
     inkscape:pageopacity="0.0"
     inkscape:pagecheckerboard="0"
     inkscape:deskcolor="#d1d1d1"
     inkscape:zoom="4.9055533"
     inkscape:cx="344.20174"
     inkscape:cy="99.682945"
     inkscape:window-width="3840"
     inkscape:window-height="2160"
     inkscape:window-x="0"
     inkscape:window-y="0"
     inkscape:window-maximized="0"
     inkscape:current-layer="svg17" /><path
     d="m 416.8096,107.5506 c 0,0 40.4139,-4.7369 40.6296,-1.3192 0.2515,3.994 -31.043,36.009 -30.934,35.9279 0.5075,-0.3777 32.716,29.2131 39.096,35.8235 0.9037,0.9347 0.1146,2.9293 -0.8106,3.8368 -1.5265,1.4956 -3.3233,1.9951 -4.5317,1.0157 -7.3904,-5.9927 -36.0572,-39.4593 -39.8083,-36.9737 -0.2785,0.1844 1.4896,31.0152 1.0996,37.7686 -0.0855,1.4777 -2.2986,2.687 -3.4415,2.7524 -1.1415,0.0643 -3.3895,-0.967 -3.413,-2.3636 -0.2162,-13.1382 2.1139,-76.4684 2.1139,-76.4684 m 5.262,6.1251 c 0,0 -0.4844,18.0205 -1.6191,25.9733 -0.552,3.8657 24.8577,-27.4667 24.8577,-27.4667 z m -131.1133,12.0887 c 0.7879,-0.5491 2.1757,0.6555 2.5652,1.3055 0.388,0.651 0.4204,2.0302 -0.2287,2.597 -5.265,4.588 -31.0328,23.2366 -31.3566,24.9363 -0.1242,0.6496 -0.168,47.0598 -0.7637,56.7506 -0.065,1.0547 -1.9613,1.2849 -2.8082,1.3949 -0.7884,0.1015 -2.2466,0.0689 -2.2713,-0.737 -0.277,-9.1222 1.699,-54.1125 0.6109,-53.9985 -0.9523,0.1013 -9.31105,6.5052 -11.65265,7.6619 -0.9186,0.4535 -2.08515,-0.0571 -2.40045,-0.7221 -0.3152,-0.6649 -0.66237,-2.85401 0.18903,-3.54411 8.0507,-6.532 39.81397,-29.85319 48.11647,-35.64449 m 44.5246,3.5292 c -0.1747,10.3709 0.9527,52.3074 2.7121,61.9097 0.2218,1.2099 21.203,-15.3525 27.6675,-19.8877 2.0043,-1.4051 4.3383,-2.7252 3.2267,-5.1417 -1.1442,-2.488 -3.8744,-1.8719 -5.3822,-0.8373 -2.753,1.8913 -21.8073,17.1019 -21.8073,17.1019 0,0 -0.606,-40.747 -1.5112,-53.7028 -0.1704,-2.4528 -4.8175,-4.6733 -4.9056,0.5579"
     style="fill:#85aab0;stroke-width:0.123467"
     id="path1"
     sodipodi:nodetypes="ccscccccccccccccccccccccscccccccccc" /><path
     d="M322.6822 129.5308c-.3356 12.5196-1.899 67.0152-1.1813 67.8582 2.1057 2.4738 45.5479 13.1908 45.741 13.1453 4.1273-.9678 2.0764-4.8474.5703-5.6304-1.1152-.5778-41.3735-12.1624-41.3735-12.1624-.6847-.0433 1.0398-51.8765 1.2209-62.4287.0319-1.7877-4.9295-2.5686-4.9774-.782m51.8186 59.5575c2.5612-10.8556 19.6144-63.9293 19.6144-63.9293s20.0835 89.2735 23.606 107.6577c.2281 1.192-1.4943 2.3907-2.4712 2.6465-.9768.2558-3.0525.0395-3.3895-1.1141-2.6177-8.9485-12.318-52.5768-12.318-52.5768l-16.5633-5.3637s-2.8135 11.7695-4.2273 13.8822c-.8243 1.2337-4.593.2468-4.2511-1.2025m10.4332-17.4202c-.5863-.1852 8.1951-28.5928 8.1951-28.5928l5.9791 32.3652s-11.1864-3.309-14.1742-3.7724m-112.4584-8.0596c.384-2.4761 29.438-27.3673 35.849-32.7128.6916-.5779 2.2045.103 2.6166.636.4134.533.4454 1.9472-.1415 2.5627-5.6619 5.9407-33.3434 30.8812-33.8337 33.0832-.0704.3184 1.8612 10.415 2.2668 10.9746.3605.4972 22.8362-19.9029 27.838-23.6026.6917-.5125 1.7987.6863 2.1688 1.3987.37.7136.737 2.2188.0491 2.8777-4.901 4.6997-28.4209 24.5531-29.4513 25.3198-.021.0156 1.1523 15.525 1.4121 15.711.1792.1284 23.1294-21.5972 28.4501-25.8057.9233-.7305 2.9609-.1303 3.4724.55.5102.68.4508 2.7237-.4059 3.5312-6.1163 5.762-36.1503 35.7336-36.292 31.0462-.086-2.823-4.0876-44.9892-3.9986-45.57"
     style="fill:#85aab0;stroke-width:.123467"
     id="path2" /><path
     d="m192.1367 154.6162 7.4658-19.9736c-.5304-1.9019 23.151-6.7598 26.873-8.6977 1.5828-.8255 1.1238-2.3749.549-2.9192-.5748-.5454-1.434-.8515-3.9977-.35-4.8764.9533-27.2882 6.255-26.9374 8.3498 0 0-10.9607 27.9472-9.2886 28.3293 4.3405.988 51.887-2.7842 50.9975-.7998-.7303 1.629-3.2461 31.873-3.2461 31.873s-33.0338 16.182-34.4578 18.4772c-.57.9176 1.7071 2.8046 2.8406 2.343 6.5096-2.6483 36.8465-17.0018 36.2238-18.233 0 0 .2048-2.3147.5263-5.8187.939-10.2372 2.8687-30.624 3.5625-33.1122.496-1.7814-51.1109.5318-51.1109.5318"
     style="fill:#85aab0;stroke-width:.111759"
     id="path3" /><path
     d="M142.5615 129.406c-.2862 2.7067 7.1301 65.5998 9.0709 78.7627.1274.863 1.7211.0891 2.5736.2112 1.7453.2502 2.853-.7575 2.7949-1.8902-.3669-7.2103-4.9923-41.3716-4.9923-41.3716s17.819-6.8531 20.7023-8.3971c.161-.0862 4.7687 36.0644 6.4058 43.3946.2539 1.1393 2.5191.795 3.4114.5836.8677-.2062 2.0482-.9597 1.9449-1.8555-1.6123-13.9889-9.8107-82.7706-11.6173-82.0776-1.879.72-4.1548 2.8023-3.953 4.7914.3747 3.7234 2.9724 25.6946 2.8847 28.2552-.0197.596-20.7025 7.799-20.899 7.4201-.469-.8969-.8386-21.3915-3.1523-29.7668-1.487-5.382-5.5905-.6024-5.1746 1.94"
     style="fill:#85aab0;stroke-width:.123466"
     id="path4" /><path
     d="m77.2086 152.5312 7.4657-19.9735c-.5304-1.9019 23.151-6.7598 26.8731-8.6977 1.5828-.8255 1.1238-2.3749.5489-2.9192-.5747-.5454-1.4338-.8516-3.9977-.35-4.8764.9533-27.288 6.255-26.9373 8.3497 0 0-10.9608 27.9473-9.2886 28.3294 4.3404.988 51.887-2.7843 50.9974-.7999-.7302 1.629-3.246 31.8732-3.246 31.8732s-33.0339 16.1818-34.4579 18.4771c-.57.9176 1.7072 2.8046 2.8407 2.343 6.5096-2.6483 36.8465-17.0018 36.2237-18.233 0 0 .2048-2.3147.5264-5.8187.939-10.2373 2.8687-30.624 3.5625-33.1122.496-1.7814-51.1109.5318-51.1109.5318"
     style="fill:#85aab0;stroke-width:.111759"
     id="path5" /><path
     d="M120.8502 80.0725c.6478-.6858 62.1852-23.2474 74.6295-26.9174.739-.2178 1.5375.933 1.6517 1.671.1145.7367-.0716 2.394-.9658 2.7544-12.0806 4.8787-70.708 26.6771-71.5216 26.5165-1.696-.3362-5.1588 23.3268-4.038 23.3011 1.092-.0242 34.9272-13.6657 42.522-15.8222 1.3366-.3808 2.6358 1.8407 3.0434 2.8797.4073 1.0403.4437 2.936-.5996 3.3566-7.6785 3.0979-43.2318 12.8497-45.4762 15.2294-.6891.7288-2.0549 15.7379-3.0211 20.0034-.164.7239 90.445-29.4208 109.5174-34.505 1.3384-.357 2.9595 1.4775 3.2469 2.6207.2873 1.1432-.1075 3.7847-1.5217 4.2389-20.0755 6.4562-118.0421 35.3565-118.9323 34.4944-.1666-.1613 9.6024-57.8469 11.4654-59.8215"
     style="fill:#85aab0;stroke-width:.123466"
     id="path6" /><path
     d="m 49.8537,128.1284 c 1.7042,-16.1752 11.6788,-94.9547 13.2631,-95.803 1.923,-1.0287 26.8318,43.0303 27.0956,42.889 0.9386,-0.5026 36.81021,-36.8993 41.47594,-36.867075 1.96517,-0.823018 -0.35964,6.208875 -1.97354,15.523475 -4.9284,28.4474 -14.23,85.656 -14.0589,84.2295 0.0664,-0.5554 -5.3957,1.0854 -5.353,0.001 0.2358,-6.0322 13.3995,-82.6798 13.1287,-82.7644 C 122.7834,55.1343 89.3938,86.0273 88.0073,86.2599 87.9288,86.2731 66.782,47.5526 66.782,47.5526 c 0,0 -10.1443,79.8553 -10.8227,81.1897 -0.2453,0.4851 -2.049,0.7344 -3.0666,0.6322 -1.0177,-0.102 -3.1557,-0.146 -3.039,-1.246"
     style="fill:#85aab0;stroke-width:0.123466"
     id="path7"
     sodipodi:nodetypes="ccccccccccccc" /><path
     d="M411.9677 105.2964s40.4138-4.737 40.6296-1.3192c.2514 3.994-31.0431 36.009-30.934 35.9279.5075-.3777 32.716 29.2131 39.096 35.8234.9037.9347.1146 2.9294-.8106 3.8369-1.5266 1.4956-3.3233 1.995-4.5317 1.0156-7.3905-5.9926-36.0572-39.4592-39.8083-36.9736-.2786.1844 1.4896 31.0152 1.0995 37.7685-.0855 1.4778-2.2985 2.6871-3.4414 2.7525-1.1415.0644-3.3895-.967-3.413-2.3636-.2162-13.1382 2.1139-76.4684 2.1139-76.4684m5.262 6.1251s-.4844 18.0205-1.6192 25.9733c-.5518 3.8657 24.8578-27.4667 24.8578-27.4667zm-131.1133 12.0887c.7878-.5492 2.1757.6555 2.5651 1.3055.3881.651.4205 2.0302-.2286 2.597-5.2651 4.588-31.0328 23.2366-31.3566 24.9363-.1243.6496-.168 47.0597-.7637 56.7506-.0651 1.0547-1.9613 1.2848-2.8082 1.3949-.7885.1015-2.2467.0689-2.2713-.737-.277-9.1222 1.699-54.1126.6108-53.9985-.9522.1012-8.7636 6.6338-11.1051 7.7905-.9186.4534-2.6326-.1858-2.9479-.8507s.2036-2.4475 1.055-3.1377c8.0507-6.5319 38.948-30.2596 47.2505-36.051m44.5246 3.5292c-.1748 10.371.9527 52.3075 2.7121 61.9098.2217 1.2098 21.2029-15.3526 27.6675-19.8877 2.0043-1.4052 4.3383-2.7252 3.2267-5.1417-1.1442-2.4881-3.8745-1.872-5.3822-.8373-2.753 1.8912-21.8073 17.1018-21.8073 17.1018s-.606-40.7468-1.5112-53.7028c-.1705-2.4527-4.8175-4.6733-4.9056.558"
     style="fill:#ff5c00;stroke-width:.123467"
     id="path8" /><path
     d="M317.8403 127.2766c-.3356 12.5195-1.899 67.0152-1.1813 67.8582 2.1057 2.4738 45.5479 13.1908 45.7409 13.1453 4.1273-.9678 2.0765-4.8474.5703-5.6304-1.1152-.5778-41.3734-12.1624-41.3734-12.1624-.6847-.0433 1.0398-51.8765 1.2209-62.4287.0318-1.7877-4.9296-2.5686-4.9774-.782m53.915 60.253c2.5613-10.8556 19.6146-63.9293 19.6146-63.9293s20.0835 89.2735 23.606 107.6577c.228 1.192-1.4944 2.3907-2.4712 2.6465s-3.0526.0395-3.3896-1.1141c-2.6177-8.9485-12.318-52.5768-12.318-52.5768l-16.5633-5.3637s-2.8135 11.7695-4.2273 13.8822c-.8243 1.2337-4.593.2468-4.2511-1.2025m10.4333-17.4202c-.5863-.1852 8.195-28.5928 8.195-28.5928l5.9791 32.3652s-11.1863-3.309-14.1741-3.7724m-112.4003-9.4532c.3841-2.4761 29.4381-27.3672 35.849-32.7128.6917-.5778 2.2045.1031 2.6167.636.4134.533.4454 1.9472-.1416 2.5627-5.6618 5.9407-33.3433 30.8813-33.8337 33.0832-.0704.3185 1.065 10.8222 1.4697 11.3803.3615.4986 23.5013-20.2397 28.6352-24.0082.6937-.5097 1.7987.6863 2.1688 1.3987.37.7136.737 2.2188.0491 2.8777-4.901 4.6997-28.4209 24.553-29.4514 25.3198-.021.0156 1.1524 15.525 1.4122 15.711.1791.1284 23.1294-21.5973 28.45-25.8057.9233-.7305 2.961-.1304 3.4724.5499.5103.68.451 2.7238-.4058 3.5313-6.1164 5.762-36.1503 35.7335-36.292 31.0462-.086-2.8231-4.0876-44.9892-3.9986-45.57"
     style="fill:#ff5c00;stroke-width:.123467"
     id="path9" /><path
     d="m189.0936 152.2939 7.4657-19.9736c-.7128-2.3375 22.8143-7.728 26.8731-8.6977 1.732-.4155 1.1238-2.3749.5489-2.9192-.5747-.5454 1.7813-1.0993-.8068-.7415-4.2873.5929-29.9693 6.9907-30.1282 8.7413 0 0-10.9607 27.9472-9.2886 28.3293 4.3404.988 51.887-2.7842 50.9974-.7998-.7302 1.629-3.246 31.873-3.246 31.873s-33.0339 16.182-34.4579 18.4772c-.57.9176 1.7072 2.8046 2.8407 2.343 6.5096-2.6483 36.8465-17.0018 36.2238-18.2329 0 0 .2048-2.3147.5263-5.8188.939-10.2372 2.8687-30.624 3.5625-33.1122.496-1.7814-51.1109.5319-51.1109.5319"
     style="fill:#ff5c00;stroke-width:.111759"
     id="path10" /><path
     d="M452.7118 101.199c-5.7533-.8785-5.197 6.2806-1.5402 7.1294 5.9035 1.3707 6.454-6.3785 1.5402-7.1294m-40.097 2.4925c-5.7533-.8786-5.197 6.2805-1.5402 7.1293 5.9035 1.3708 6.454-6.3785 1.5402-7.1293m46.9567 71.2082c-5.7533-.8785-5.197 6.2806-1.5402 7.1294 5.9035 1.3707 6.454-6.3785 1.5402-7.1294m-45.4491 3.6121c-5.7532-.8785-5.197 6.2806-1.5402 7.1294 5.9035 1.3707 6.454-6.3785 1.5402-7.1294m1.6216-42.5639c-5.7532-.8785-5.197 6.2805-1.5402 7.1293 5.9035 1.3708 6.454-6.3785 1.5403-7.1293m-22.8013-13.0033c-5.7532-.8786-5.197 6.2805-1.5402 7.1293 5.9035 1.3708 6.454-6.3785 1.5402-7.1293m-18.7032 64.5974c-5.7533-.8785-5.197 6.2806-1.5403 7.1294 5.9035 1.3707 6.454-6.3786 1.5403-7.1294m39.3751 43.1665c-5.7533-.8785-5.197 6.2806-1.5402 7.1294 5.9035 1.3707 6.454-6.3785 1.5402-7.1294m-49.7636-70.5243c-5.7533-.8786-5.197 6.2805-1.5402 7.1293 5.9035 1.3708 6.454-6.3785 1.5402-7.1293M335.5936 183.11c-5.7533-.8786-5.197 6.2805-1.5402 7.1292 5.9035 1.3708 6.454-6.3785 1.5402-7.1293m-1.9645-61.8079c-5.7533-.8785-5.197 6.2806-1.5402 7.1294 5.9035 1.3707 6.454-6.3785 1.5402-7.1294m-12.6909 1.7911c-5.7532-.8785-5.197 6.2806-1.5402 7.1294 5.9035 1.3707 6.454-6.3785 1.5402-7.1294m-1.6405 66.8509c-5.7532-.8785-5.197 6.2806-1.5402 7.1293 5.9035 1.3708 6.454-6.3785 1.5402-7.1293m46.5827 12.6464c-5.7533-.8785-5.197 6.2806-1.5402 7.1294 5.9035 1.3707 6.454-6.3786 1.5402-7.1294m-57.6454-75.7018c-5.7532-.8785-5.197 6.2806-1.5402 7.1294 5.9036 1.3707 6.454-6.3785 1.5403-7.1294m-.5693 22.6054c-5.7532-.8785-5.197 6.2806-1.5402 7.1293 5.9035 1.3708 6.454-6.3785 1.5402-7.1293m3.1162 20.2914c-5.7533-.8785-5.197 6.2805-1.5403 7.1293 5.9035 1.3708 6.454-6.3785 1.5402-7.1293m-34.5898 31.9933c-5.7533-.8785-5.197 6.2805-1.5402 7.1293 5.9035 1.3708 6.454-6.3785 1.5402-7.1293m-4.0979-43.1258c-5.7533-.8786-5.197 6.2805-1.5403 7.1293 5.9035 1.3707 6.454-6.3785 1.5403-7.1293m2.9496 15.8401c-5.7533-.8785-5.197 6.2806-1.5403 7.1294 5.9035 1.3707 6.454-6.3785 1.5403-7.1294m-36.5306-25.3874c-5.7532-.8786-5.197 6.2805-1.5402 7.1293 5.9035 1.3708 6.454-6.3785 1.5402-7.1293m-6.0485 38.8464c-5.7532-.8785-5.197 6.2806-1.5402 7.1294 5.9035 1.3707 6.454-6.3785 1.5402-7.1294m-6.7416-68.4867c-5.7533-.8785-5.197 6.2805-1.5402 7.1293 5.9035 1.3708 6.454-6.3785 1.5402-7.1293m-33.0396 6.9644c-5.7532-.8786-5.197 6.2805-1.5402 7.1293 5.9035 1.3707 6.454-6.3785 1.5402-7.1293m-9.3754 26.6316c-5.7532-.8785-5.197 6.2805-1.5402 7.1293 5.9035 1.3708 6.454-6.3785 1.5402-7.1293m13.7523 52.1045c-5.7533-.8785-5.197 6.2806-1.5402 7.1294 5.9035 1.3707 6.454-6.3785 1.5402-7.1294m92.8906-83.6081c-5.7533-.8786-5.197 6.2805-1.5403 7.1293 5.9035 1.3708 6.454-6.3785 1.5402-7.1293M239.81 158.989c-5.7532-.8785-5.197 6.2805-1.5402 7.1293 5.9035 1.3708 6.454-6.3785 1.5402-7.1293m15.4322 45.7577c-5.7533-.8785-5.197 6.2806-1.5403 7.1293 5.9036 1.3708 6.454-6.3785 1.5403-7.1293m-.365-56.4213c-5.7533-.8785-5.197 6.2805-1.5403 7.1293 5.9035 1.3708 6.454-6.3785 1.5402-7.1293m145.3668 25.5186c-5.7533-.8785-5.197 6.2806-1.5403 7.1293 5.9035 1.3708 6.454-6.3785 1.5403-7.1293m-19.9304-5.1766c-5.7533-.8785-5.197 6.2806-1.5402 7.1294 5.9035 1.3707 6.454-6.3786 1.5402-7.1294"
     style="fill:#fad42e;stroke-width:.123467"
     id="path11" /><path
     d="M139.3404 127.0787c-.2862 2.7067 7.13 65.5998 9.0708 78.7628.1275.863 1.7212.089 2.5737.2111 1.7453.2502 2.853-.7575 2.7949-1.8902-.3669-7.2103-4.9924-41.3716-4.9924-41.3716s17.819-6.8531 20.7024-8.397c.161-.0863 4.7687 36.0644 6.4058 43.3946.2539 1.1392 2.519.795 3.4114.5835.8677-.2062 2.0482-.9596 1.9449-1.8555-1.6123-13.9889-9.8107-82.7706-11.6173-82.0775-1.879.7198-4.1548 2.8022-3.953 4.7914.3747 3.7234 2.9724 25.6946 2.8847 28.2552-.0197.596-20.7025 7.7988-20.8991 7.42-.4689-.8968-.8385-21.3915-3.1522-29.7667-1.4871-5.382-5.5905-.6025-5.1746 1.94"
     style="fill:#0000c4;stroke-width:.123466"
     id="path12" /><path
     d="m 74.8988,150.6464 7.4657,-19.9736 c -0.5304,-1.9019 23.151,-6.7598 26.8731,-8.6977 1.5827,-0.8255 1.1237,-2.3749 0.5489,-2.9192 -0.5748,-0.5454 -0.75977,-1.3546 -3.32357,-0.8531 -4.8764,0.9533 -27.96223,6.7581 -27.61143,8.8529 0,0 -10.9608,27.9472 -9.2887,28.3293 4.3405,0.988 51.887,-2.7842 50.9975,-0.7998 -0.7302,1.629 -3.246,31.873 -3.246,31.873 0,0 -33.017974,16.21226 -35.390755,18.15829 -0.57,0.9176 2.640055,3.12351 3.773455,2.66191 6.5097,-2.6483 36.8466,-17.0018 36.2238,-18.233 0,0 0.2048,-2.3146 0.5264,-5.8187 0.939,-10.2372 2.8687,-30.624 3.5625,-33.1122 0.496,-1.7814 -51.111,0.5319 -51.111,0.5319"
     style="fill:#0000c4;stroke-width:0.111759"
     id="path13"
     sodipodi:nodetypes="cccccccsccccccc" /><path
     d="M117.6291 77.7452c.6478-.6858 62.1852-23.2474 74.6295-26.9174.739-.2178 1.5374.933 1.6516 1.671.1146.7368-.0716 2.394-.9657 2.7544-12.0806 4.8787-70.708 26.6772-71.5216 26.5165-1.696-.3362-5.1588 23.3268-4.038 23.3011 1.092-.0242 34.9272-13.6656 42.522-15.8221 1.3366-.3809 2.6358 1.8406 3.0434 2.8797.4073 1.0402.4437 2.936-.5996 3.3565-7.6785 3.098-43.2318 12.8498-45.4762 15.2294-.6891.7288-2.055 15.738-3.0211 20.0034-.164.7239 90.445-29.4208 109.5174-34.505 1.3384-.357 2.9595 1.4775 3.2469 2.6207.2873 1.1432-.1075 3.7848-1.5217 4.2389-20.0755 6.4563-118.0421 35.3565-118.9323 34.4944-.1666-.1613 9.6024-57.8468 11.4654-59.8215"
     style="fill:#0000c4;stroke-width:.123466"
     id="path14" /><path
     d="m 46.6326,125.8012 c 1.7042,-16.1753 11.6788,-94.9548 13.2631,-95.8031 1.9229,-1.0287 26.8318,43.0303 27.0956,42.889 0.9386,-0.5026 45.88222,-37.997466 42.40202,-36.525466 -0.7676,0.3245 -17.18602,101.305466 -16.95852,99.411466 0.0664,-0.5554 -5.3957,1.0853 -5.353,0.001 0.2358,-6.0323 14.63654,-84.018466 14.36574,-84.103066 C 120.79934,51.468534 86.1727,83.7001 84.7862,83.9326 84.7077,83.9458 63.5609,45.2254 63.5609,45.2254 c 0,0 -10.1443,79.8553 -10.8227,81.1896 -0.2453,0.4852 -2.049,0.7344 -3.0666,0.6323 -1.0176,-0.1021 -3.1557,-0.146 -3.039,-1.2461"
     style="fill:#0000c4;stroke-width:0.123466"
     id="path15"
     sodipodi:nodetypes="ccccccscccsc" /><path
     d="M164.3361 88.3593c-5.5634-1.7242-6.0503 5.4404-2.5563 6.8235 5.6407 2.2334 7.3079-5.3504 2.5563-6.8235m31.8888-38.79c-5.5634-1.7242-6.0504 5.4404-2.5564 6.8235 5.6407 2.2334 7.308-5.3505 2.5564-6.8235M69.4712 150.8378c-5.5634-1.7242-6.0503 5.4404-2.5563 6.8235 5.6407 2.2334 7.3079-5.3504 2.5563-6.8235m59.7477-114.9201c-5.5634-1.7241-6.0504 5.4404-2.5564 6.8236 5.6407 2.2334 7.308-5.3505 2.5564-6.8236m-14.365 70.0546c-5.5634-1.7241-6.0504 5.4404-2.5564 6.8236 5.6407 2.2334 7.308-5.3505 2.5564-6.8236m6.2281-30.9624c-5.5634-1.7242-6.0503 5.4404-2.5563 6.8235 5.6407 2.2334 7.3079-5.3505 2.5563-6.8235m-11.9928 58.5875c-5.5634-1.7241-6.0504 5.4404-2.5564 6.8236 5.6407 2.2334 7.308-5.3505 2.5564-6.8236"
     style="fill:#fad42e;stroke-width:.123466"
     id="path16" /><path
     d="M164.3361 88.3593c-5.5634-1.7242-6.0503 5.4404-2.5563 6.8235 5.6407 2.2334 7.3079-5.3504 2.5563-6.8235M83.5237 201.7895c-5.5634-1.7241-6.0504 5.4404-2.5563 6.8236 5.6407 2.2334 7.3079-5.3505 2.5563-6.8236m-3.9962-79.3305c-5.5635-1.724-6.0504 5.4405-2.5564 6.8236 5.6407 2.2334 7.308-5.3504 2.5564-6.8235m-28.7563.4971c-5.5634-1.7241-6.0503 5.4404-2.5563 6.8236 5.6407 2.2334 7.3079-5.3505 2.5563-6.8236m101.4835 79.6384c-5.5634-1.7242-6.0504 5.4404-2.5564 6.8235 5.6407 2.2335 7.308-5.3504 2.5564-6.8235m28.2961-7.4881c-5.5635-1.7241-6.0504 5.4404-2.5564 6.8236 5.6407 2.2334 7.308-5.3505 2.5563-6.8236m-32.996-39.6407c-5.5634-1.7242-6.0504 5.4404-2.5564 6.8235 5.6407 2.2334 7.308-5.3504 2.5564-6.8235m25.2923-8.0143c-5.5634-1.7242-6.0504 5.4404-2.5563 6.8235 5.6407 2.2334 7.3079-5.3504 2.5563-6.8235m-29.5502-24.5227c-5.5634-1.7241-6.0504 5.4404-2.5564 6.8236 5.6407 2.2334 7.308-5.3505 2.5564-6.8236m27.4364-9.5091c-5.5634-1.7241-6.0503 5.4404-2.5563 6.8236 5.6407 2.2334 7.3079-5.3505 2.5563-6.8236M61.7519 28.2661c-5.5634-1.7241-6.0504 5.4404-2.5564 6.8236 5.6407 2.2334 7.308-5.3505 2.5564-6.8236m24.2006 49.8164c-5.5635-1.7242-6.0504 5.4404-2.5564 6.8235 5.6407 2.2334 7.308-5.3505 2.5564-6.8235m142.3727 17.4379c-5.5634-1.7242-6.0503 5.4404-2.5563 6.8235 5.6407 2.2334 7.308-5.3505 2.5563-6.8235m-102.8089 50.5118c-5.5634-1.7241-6.0504 5.4404-2.5564 6.8235 5.6407 2.2334 7.308-5.3504 2.5564-6.8235m-5.5457 37.8995c-5.5634-1.7242-6.0504 5.4403-2.5564 6.8235 5.6407 2.2334 7.308-5.3505 2.5564-6.8236"
     style="fill:#fad42e;stroke-width:.123466"
     id="path17" /></svg>
