<svg xmlns="http://www.w3.org/2000/svg" xml:space="preserve" width="512" height="256" style="clip-rule:evenodd;fill-rule:evenodd;stroke-linejoin:round;stroke-miterlimit:2"><path d="M416.81 107.55s40.413-4.736 40.63-1.319c.25 3.994-31.044 36.01-30.935 35.928.508-.377 32.716 29.213 39.096 35.824.904.934.115 2.93-.81 3.837-1.527 1.495-3.324 1.995-4.532 1.015-7.39-5.992-36.057-39.459-39.808-36.973-.279.184 1.49 31.015 1.1 37.768-.086 1.478-2.3 2.687-3.442 2.753-1.142.064-3.39-.967-3.413-2.364-.217-13.138 2.114-76.468 2.114-76.468m5.262 6.125s-.485 18.02-1.62 25.973c-.552 3.866 24.858-27.467 24.858-27.467zm-131.114 12.088c.788-.549 2.176.656 2.565 1.306s.42 2.03-.228 2.597c-5.265 4.588-31.033 23.236-31.357 24.936-.124.65-.168 47.06-.764 56.75-.065 1.055-1.96 1.286-2.808 1.396-.788.101-2.246.069-2.271-.737-.277-9.123 1.699-54.113.61-53.999-.951.101-9.31 6.505-11.652 7.662-.918.454-2.085-.057-2.4-.722s-.663-2.854.189-3.544c8.05-6.532 39.814-29.853 48.116-35.645m44.525 3.53c-.175 10.37.953 52.307 2.712 61.91.222 1.21 21.203-15.353 27.667-19.888 2.005-1.405 4.339-2.726 3.227-5.142-1.144-2.488-3.874-1.872-5.382-.837-2.753 1.89-21.807 17.102-21.807 17.102s-.606-40.747-1.512-53.703c-.17-2.453-4.817-4.674-4.905.558" style="fill:#85aab0;stroke-width:.123467"/><path d="M322.682 129.53c-.335 12.52-1.899 67.016-1.181 67.859 2.106 2.474 45.548 13.19 45.74 13.145 4.128-.967 2.077-4.847.571-5.63-1.115-.578-41.373-12.163-41.373-12.163-.685-.043 1.04-51.876 1.22-62.428.032-1.788-4.929-2.569-4.977-.782m51.819 59.557c2.561-10.855 19.614-63.929 19.614-63.929s20.084 89.274 23.606 107.658c.228 1.192-1.494 2.39-2.471 2.646s-3.053.04-3.39-1.114c-2.617-8.948-12.318-52.577-12.318-52.577l-16.563-5.363s-2.813 11.77-4.227 13.882c-.824 1.234-4.593.247-4.251-1.203m10.433-17.42c-.586-.185 8.195-28.593 8.195-28.593l5.98 32.366s-11.187-3.31-14.175-3.773m-112.458-8.06c.384-2.476 29.438-27.367 35.849-32.712.691-.578 2.204.103 2.616.636.414.533.446 1.947-.141 2.562-5.662 5.941-33.344 30.882-33.834 33.084-.07.318 1.861 10.415 2.267 10.974.36.497 22.836-19.903 27.838-23.602.691-.513 1.798.686 2.169 1.398.37.714.737 2.22.049 2.878-4.901 4.7-28.421 24.553-29.452 25.32-.02.015 1.153 15.525 1.412 15.71.18.13 23.13-21.596 28.45-25.805.924-.73 2.961-.13 3.473.55.51.68.45 2.724-.406 3.531-6.116 5.762-36.15 35.734-36.292 31.047-.086-2.823-4.087-44.99-3.998-45.57" style="fill:#85aab0;stroke-width:.123467"/><path d="m192.137 154.616 7.465-19.973c-.53-1.902 23.151-6.76 26.873-8.698 1.583-.826 1.124-2.375.55-2.92s-1.435-.85-3.998-.35c-4.877.954-27.288 6.256-26.938 8.35 0 0-10.96 27.948-9.288 28.33 4.34.988 51.887-2.784 50.997-.8-.73 1.629-3.246 31.873-3.246 31.873s-33.034 16.182-34.458 18.477c-.57.918 1.707 2.805 2.841 2.343 6.51-2.648 36.846-17.002 36.224-18.233 0 0 .205-2.315.526-5.819.94-10.237 2.869-30.624 3.563-33.112.496-1.781-51.111.532-51.111.532" style="fill:#85aab0;stroke-width:.111759"/><path d="M142.562 129.406c-.287 2.707 7.13 65.6 9.07 78.763.128.863 1.721.089 2.574.21 1.745.251 2.853-.757 2.795-1.89-.367-7.21-4.992-41.37-4.992-41.37s17.819-6.854 20.702-8.398c.16-.086 4.769 36.064 6.406 43.395.254 1.139 2.519.795 3.411.583.868-.206 2.048-.96 1.945-1.855-1.612-13.99-9.81-82.77-11.617-82.078-1.88.72-4.155 2.802-3.953 4.791.374 3.724 2.972 25.695 2.884 28.256-.02.596-20.702 7.799-20.899 7.42-.469-.897-.838-21.392-3.152-29.767-1.487-5.382-5.59-.602-5.174 1.94" style="fill:#85aab0;stroke-width:.123466"/><path d="m77.209 152.531 7.465-19.973c-.53-1.902 23.151-6.76 26.873-8.698 1.583-.825 1.124-2.375.55-2.92s-1.434-.85-3.998-.35c-4.877.954-27.288 6.256-26.938 8.35 0 0-10.96 27.948-9.288 28.33 4.34.988 51.887-2.784 50.997-.8-.73 1.629-3.246 31.873-3.246 31.873S86.59 204.525 85.166 206.82c-.57.918 1.707 2.805 2.84 2.343 6.51-2.648 36.847-17.002 36.225-18.233 0 0 .204-2.314.526-5.818.939-10.238 2.869-30.624 3.563-33.113.496-1.781-51.111.532-51.111.532" style="fill:#85aab0;stroke-width:.111759"/><path d="M120.85 80.073c.648-.686 62.185-23.248 74.63-26.918.739-.218 1.537.933 1.651 1.671.115.737-.071 2.394-.965 2.755-12.081 4.878-70.708 26.677-71.522 26.516-1.696-.336-5.159 23.327-4.038 23.301 1.092-.024 34.927-13.666 42.522-15.822 1.337-.38 2.636 1.84 3.043 2.88s.444 2.936-.6 3.356c-7.678 3.098-43.231 12.85-45.475 15.23-.69.728-2.055 15.738-3.022 20.003-.164.724 90.445-29.42 109.518-34.505 1.338-.357 2.96 1.478 3.247 2.62.287 1.144-.108 3.785-1.522 4.24-20.075 6.456-118.042 35.356-118.932 34.494-.167-.161 9.602-57.847 11.465-59.821" style="fill:#85aab0;stroke-width:.123466"/><path d="M49.854 128.128c1.704-16.175 11.679-94.954 13.263-95.803 1.923-1.028 26.832 43.03 27.095 42.89.939-.503 36.81-36.9 41.476-36.868 1.966-.823-.36 6.21-1.973 15.524-4.929 28.447-14.23 85.656-14.06 84.23.067-.556-5.395 1.085-5.352 0 .236-6.032 13.4-82.68 13.129-82.764-.649-.203-34.038 30.69-35.425 30.923-.078.013-21.225-38.707-21.225-38.707s-10.144 79.855-10.823 81.19c-.245.484-2.049.734-3.066.632-1.018-.102-3.156-.146-3.04-1.246" style="fill:#85aab0;stroke-width:.123466"/><path d="M411.968 105.296s40.413-4.737 40.63-1.319c.25 3.994-31.044 36.01-30.935 35.928.508-.378 32.716 29.213 39.096 35.824.904.934.115 2.929-.81 3.836-1.527 1.496-3.324 1.995-4.532 1.016-7.39-5.993-36.057-39.46-39.808-36.974-.279.185 1.49 31.016 1.1 37.769-.086 1.478-2.3 2.687-3.442 2.752s-3.39-.967-3.413-2.363c-.216-13.138 2.114-76.469 2.114-76.469m5.262 6.125s-.485 18.021-1.62 25.974c-.551 3.865 24.858-27.467 24.858-27.467zm-131.114 12.09c.788-.55 2.176.655 2.565 1.305s.421 2.03-.228 2.597c-5.265 4.588-31.033 23.236-31.357 24.936-.124.65-.168 47.06-.763 56.75-.066 1.055-1.962 1.285-2.809 1.395-.788.102-2.246.07-2.27-.737-.278-9.122 1.698-54.112.61-53.998-.952.101-8.764 6.634-11.105 7.79-.919.454-2.633-.185-2.948-.85s.203-2.448 1.055-3.138c8.05-6.532 38.948-30.26 47.25-36.05m44.525 3.528c-.175 10.371.953 52.308 2.712 61.91.222 1.21 21.203-15.352 27.668-19.888 2.004-1.405 4.338-2.725 3.226-5.141-1.144-2.488-3.874-1.872-5.382-.838-2.753 1.892-21.807 17.102-21.807 17.102s-.606-40.747-1.511-53.703c-.17-2.452-4.818-4.673-4.906.558" style="fill:#ff5c00;stroke-width:.123467"/><path d="M317.84 127.277c-.335 12.52-1.899 67.015-1.181 67.858 2.106 2.474 45.548 13.19 45.74 13.145 4.128-.968 2.077-4.847.571-5.63-1.115-.578-41.373-12.163-41.373-12.163-.685-.043 1.04-51.876 1.22-62.428.032-1.788-4.929-2.569-4.977-.782m53.915 60.253c2.562-10.856 19.615-63.93 19.615-63.93s20.083 89.274 23.606 107.658c.228 1.192-1.495 2.39-2.471 2.646s-3.053.04-3.39-1.114c-2.618-8.948-12.318-52.576-12.318-52.576l-16.563-5.364s-2.814 11.77-4.228 13.882c-.824 1.234-4.593.247-4.25-1.202m10.433-17.42c-.587-.186 8.195-28.593 8.195-28.593l5.979 32.365s-11.187-3.31-14.174-3.773m-112.4-9.453c.383-2.476 29.437-27.367 35.848-32.713.692-.577 2.205.103 2.617.636.413.533.445 1.948-.142 2.563-5.661 5.94-33.343 30.881-33.833 33.083-.07.319 1.065 10.823 1.47 11.38.361.5 23.5-20.24 28.635-24.008.693-.51 1.798.687 2.168 1.4s.737 2.218.05 2.877c-4.901 4.7-28.421 24.553-29.452 25.32-.02.015 1.153 15.525 1.412 15.71.18.129 23.13-21.597 28.45-25.805.924-.73 2.961-.13 3.473.55.51.68.45 2.724-.406 3.531-6.116 5.762-36.15 35.734-36.292 31.046-.086-2.823-4.088-44.989-3.999-45.57" style="fill:#ff5c00;stroke-width:.123467"/><path d="m189.094 152.294 7.465-19.974c-.712-2.337 22.815-7.728 26.873-8.697 1.732-.416 1.124-2.375.55-2.92s1.78-1.099-.807-.741c-4.288.593-29.97 6.99-30.129 8.741 0 0-10.96 27.947-9.288 28.33 4.34.988 51.887-2.785 50.997-.8-.73 1.629-3.246 31.873-3.246 31.873s-33.034 16.182-34.458 18.477c-.57.917 1.707 2.804 2.84 2.343 6.51-2.648 36.847-17.002 36.225-18.233 0 0 .204-2.315.526-5.819.939-10.237 2.869-30.624 3.563-33.112.495-1.781-51.111.532-51.111.532" style="fill:#ff5c00;stroke-width:.111759"/><path d="M452.712 101.199c-5.754-.878-5.197 6.28-1.54 7.13 5.903 1.37 6.454-6.38 1.54-7.13m-40.097 2.493c-5.754-.88-5.197 6.28-1.54 7.129 5.903 1.37 6.454-6.379 1.54-7.13M459.57 174.9c-5.753-.879-5.197 6.28-1.54 7.13 5.904 1.37 6.454-6.38 1.54-7.13m-45.449 3.612c-5.753-.879-5.197 6.28-1.54 7.13 5.904 1.37 6.454-6.38 1.54-7.13m1.622-42.564c-5.753-.879-5.197 6.28-1.54 7.13 5.903 1.37 6.454-6.38 1.54-7.13m-22.801-13.003c-5.753-.879-5.197 6.28-1.54 7.129 5.903 1.37 6.454-6.379 1.54-7.13m-18.703 64.598c-5.754-.878-5.197 6.28-1.54 7.13 5.903 1.37 6.453-6.38 1.54-7.13m39.375 43.167c-5.754-.879-5.197 6.28-1.54 7.129 5.903 1.37 6.453-6.379 1.54-7.13m-49.764-70.524c-5.753-.878-5.197 6.28-1.54 7.13 5.903 1.37 6.454-6.379 1.54-7.13m-28.257 22.926c-5.754-.879-5.197 6.28-1.54 7.13 5.903 1.37 6.453-6.38 1.54-7.13m-1.965-61.808c-5.753-.878-5.197 6.28-1.54 7.13 5.903 1.37 6.454-6.38 1.54-7.13m-12.69 1.791c-5.754-.878-5.198 6.28-1.541 7.13 5.903 1.37 6.454-6.379 1.54-7.13m-1.64 66.851c-5.753-.878-5.197 6.28-1.54 7.13 5.903 1.37 6.454-6.38 1.54-7.13m46.582 12.646c-5.753-.878-5.197 6.281-1.54 7.13 5.904 1.37 6.454-6.379 1.54-7.13m-57.645-75.701c-5.753-.879-5.197 6.28-1.54 7.129 5.903 1.37 6.454-6.378 1.54-7.13m-.57 22.606c-5.752-.878-5.196 6.28-1.54 7.13 5.904 1.37 6.455-6.38 1.54-7.13m3.117 20.291c-5.753-.878-5.197 6.28-1.54 7.13 5.903 1.37 6.454-6.379 1.54-7.13m-34.59 31.994c-5.753-.879-5.197 6.28-1.54 7.129 5.903 1.37 6.454-6.378 1.54-7.13m-4.098-43.125c-5.753-.879-5.197 6.28-1.54 7.13 5.903 1.37 6.454-6.38 1.54-7.13m2.95 15.84c-5.754-.878-5.197 6.28-1.54 7.13 5.903 1.37 6.453-6.38 1.54-7.13m-36.53-25.387c-5.754-.879-5.198 6.28-1.541 7.129 5.903 1.37 6.454-6.379 1.54-7.13m-6.048 38.847c-5.754-.878-5.197 6.28-1.54 7.13 5.903 1.37 6.453-6.38 1.54-7.13m-6.742-68.487c-5.753-.878-5.197 6.28-1.54 7.13 5.903 1.37 6.454-6.379 1.54-7.13m-33.04 6.965c-5.753-.879-5.197 6.28-1.54 7.129 5.904 1.37 6.454-6.378 1.54-7.13m-9.375 26.632c-5.753-.878-5.197 6.28-1.54 7.13 5.903 1.37 6.454-6.379 1.54-7.13m13.752 52.105c-5.753-.879-5.197 6.28-1.54 7.13 5.904 1.37 6.454-6.38 1.54-7.13m92.891-83.608c-5.753-.879-5.197 6.28-1.54 7.129 5.903 1.37 6.454-6.378 1.54-7.13m-50.14 37.433c-5.753-.878-5.197 6.28-1.54 7.13 5.903 1.37 6.454-6.38 1.54-7.13m15.432 45.758c-5.753-.879-5.197 6.28-1.54 7.129 5.903 1.37 6.454-6.378 1.54-7.13m-.365-56.42c-5.753-.88-5.197 6.28-1.54 7.129 5.903 1.37 6.454-6.379 1.54-7.13m145.367 25.519c-5.753-.878-5.197 6.28-1.54 7.13 5.903 1.37 6.454-6.38 1.54-7.13m-19.93-5.177c-5.754-.878-5.198 6.281-1.54 7.13 5.903 1.37 6.453-6.379 1.54-7.13" style="fill:#fad42e;stroke-width:.123467"/><path d="M139.34 127.079c-.286 2.706 7.13 65.6 9.071 78.763.128.862 1.721.088 2.574.21 1.745.25 2.853-.757 2.795-1.89-.367-7.21-4.993-41.371-4.993-41.371s17.82-6.853 20.703-8.397c.16-.087 4.768 36.064 6.406 43.394.254 1.14 2.519.795 3.411.584.868-.206 2.048-.96 1.945-1.856-1.612-13.989-9.81-82.77-11.617-82.077-1.88.72-4.155 2.802-3.953 4.791.374 3.724 2.972 25.695 2.884 28.255-.02.596-20.702 7.8-20.899 7.42-.469-.896-.838-21.391-3.152-29.766-1.487-5.382-5.59-.603-5.175 1.94" style="fill:#0000c4;stroke-width:.123466"/><path d="m74.899 150.646 7.465-19.973c-.53-1.902 23.151-6.76 26.874-8.698 1.582-.825 1.123-2.375.548-2.92-.574-.545-.76-1.354-3.323-.852-4.876.953-27.962 6.758-27.612 8.853 0 0-10.96 27.947-9.288 28.329 4.34.988 51.887-2.784 50.997-.8-.73 1.63-3.246 31.873-3.246 31.873s-33.018 16.212-35.39 18.158c-.57.918 2.64 3.124 3.773 2.662 6.51-2.648 36.847-17.001 36.224-18.233 0 0 .205-2.314.526-5.818.94-10.238 2.869-30.624 3.563-33.113.496-1.78-51.111.532-51.111.532" style="fill:#0000c4;stroke-width:.111759"/><path d="M117.63 77.745c.647-.686 62.184-23.247 74.629-26.917.739-.218 1.537.933 1.651 1.67.115.738-.071 2.395-.965 2.755-12.081 4.879-70.708 26.677-71.522 26.517-1.696-.336-5.159 23.327-4.038 23.3 1.092-.023 34.927-13.665 42.522-15.821 1.336-.381 2.636 1.84 3.043 2.88s.444 2.935-.6 3.356c-7.678 3.098-43.231 12.85-45.476 15.23-.689.728-2.055 15.737-3.02 20.003-.165.724 90.444-29.421 109.517-34.505 1.338-.357 2.96 1.477 3.247 2.62s-.108 3.785-1.522 4.24c-20.076 6.456-118.042 35.356-118.932 34.494-.167-.162 9.602-57.847 11.465-59.822" style="fill:#0000c4;stroke-width:.123466"/><path d="M46.633 125.801c1.704-16.175 11.678-94.955 13.263-95.803 1.923-1.029 26.832 43.03 27.095 42.89.939-.504 45.883-37.998 42.402-36.526-.767.324-17.186 101.305-16.958 99.411.066-.555-5.396 1.085-5.353.001.236-6.032 14.636-84.018 14.366-84.103-.649-.202-35.275 32.03-36.662 32.262-.078.013-21.225-38.708-21.225-38.708s-10.144 79.856-10.823 81.19c-.245.485-2.049.734-3.066.632-1.018-.102-3.156-.146-3.04-1.246" style="fill:#0000c4;stroke-width:.123466"/><path d="M164.336 88.36c-5.563-1.725-6.05 5.44-2.556 6.823 5.64 2.233 7.308-5.35 2.556-6.824m31.889-38.79c-5.564-1.724-6.05 5.44-2.557 6.824 5.641 2.233 7.308-5.35 2.557-6.824M69.47 150.838c-5.563-1.724-6.05 5.44-2.556 6.823 5.64 2.234 7.308-5.35 2.556-6.823m59.748-114.92c-5.564-1.724-6.05 5.44-2.557 6.823 5.641 2.234 7.308-5.35 2.557-6.823m-14.365 70.054c-5.564-1.724-6.05 5.44-2.557 6.824 5.641 2.233 7.309-5.35 2.557-6.824m6.228-30.962c-5.563-1.724-6.05 5.44-2.556 6.823 5.64 2.234 7.308-5.35 2.556-6.823m-11.993 58.587c-5.563-1.724-6.05 5.44-2.556 6.824 5.64 2.233 7.308-5.35 2.556-6.824" style="fill:#fad42e;stroke-width:.123466"/><path d="M164.336 88.36c-5.563-1.725-6.05 5.44-2.556 6.823 5.64 2.233 7.308-5.35 2.556-6.824M83.524 201.79c-5.564-1.724-6.05 5.44-2.557 6.824 5.641 2.234 7.308-5.35 2.557-6.823m-3.996-79.331c-5.564-1.724-6.05 5.44-2.557 6.824 5.64 2.233 7.308-5.35 2.557-6.824m-28.757.497c-5.563-1.724-6.05 5.44-2.556 6.824 5.64 2.233 7.308-5.35 2.556-6.824m101.484 79.639c-5.564-1.725-6.05 5.44-2.557 6.823 5.641 2.234 7.308-5.35 2.557-6.823m28.296-7.488c-5.564-1.725-6.05 5.44-2.557 6.823 5.641 2.234 7.308-5.35 2.557-6.823m-32.996-39.641c-5.564-1.724-6.05 5.44-2.557 6.823 5.641 2.234 7.308-5.35 2.557-6.823m25.292-8.015c-5.563-1.724-6.05 5.44-2.556 6.824 5.64 2.233 7.308-5.35 2.556-6.823m-29.55-24.523c-5.564-1.724-6.05 5.44-2.557 6.823 5.641 2.234 7.308-5.35 2.557-6.823m27.436-9.51c-5.563-1.723-6.05 5.441-2.556 6.824 5.64 2.234 7.308-5.35 2.556-6.823M61.752 28.266c-5.563-1.724-6.05 5.44-2.556 6.824 5.64 2.233 7.308-5.35 2.556-6.824m24.2 49.817c-5.563-1.725-6.05 5.44-2.556 6.823 5.64 2.233 7.308-5.35 2.557-6.823M228.325 95.52c-5.563-1.724-6.05 5.44-2.556 6.824 5.64 2.233 7.308-5.35 2.556-6.824m-102.809 50.512c-5.563-1.724-6.05 5.44-2.556 6.824 5.64 2.233 7.308-5.35 2.556-6.824m-5.545 37.9c-5.564-1.724-6.05 5.44-2.557 6.823 5.64 2.234 7.308-5.35 2.557-6.823" style="fill:#fad42e;stroke-width:.123466"/></svg>