<svg xmlns="http://www.w3.org/2000/svg" class="svg-icon" style="width:1em;height:1em;vertical-align:middle;fill:currentColor;overflow:hidden" viewBox="0 0 1024 1024"><path d="M177.9 349.5c-.1-54.6 21.2-107.1 59.4-146.1 8.4-8.4 11.6-20.6 8.4-32s-12.2-20.2-23.7-23.1-23.6.6-31.8 9.2c-105.5 108-104.1 280.8 3 387.1 12.9 12.8 33.7 12.8 46.5-.1s12.8-33.7-.1-46.6c-39.6-39.2-61.8-92.6-61.7-148.4m490.9-124.6c-13.1 12.6-13.5 33.4-.9 46.5 42.7 44.5 41.8 114.9-2 158.3-8.6 8.2-12.2 20.5-9.2 32 2.9 11.5 11.9 20.6 23.4 23.7s23.8-.3 32.1-8.9c69.3-68.6 70.8-180.2 3.2-250.6-6-6.3-14.3-9.9-23.1-10.1-8.7-.2-17.2 3.1-23.5 9.1m0 0"/><path d="M833.3 157.5c-8.2-8.6-20.3-12.1-31.8-9.2S781 160 777.8 171.4s0 23.6 8.4 32c80.1 82.1 79.1 213.5-2.3 294.4-12.9 12.8-13 33.7-.1 46.5 12.8 12.9 33.7 13 46.6.1 106.9-106.2 108.2-278.9 2.9-386.9M357.9 476.3c12.8-12.9 12.7-33.8-.2-46.5-43.8-43.3-44.7-113.8-2-158.3 12.6-13.1 12.2-34-.9-46.5-13.1-12.6-34-12.2-46.5.9-67.6 70.4-66.1 182 3.2 250.6 12.7 12.8 33.6 12.7 46.4-.2m202-50c32.1-21.4 46.4-61.3 35.3-98.2s-45-62.3-83.6-62.5-72.8 24.8-84.3 61.6 2.4 76.8 34.3 98.6L313.8 831.9c-6.2 17.1 2.6 35.9 19.7 42.2 17.1 6.2 35.9-2.7 42.2-19.7l31.3-85.9h207.4l32 88c5.7 15.4 22.7 23.4 38.1 17.8l6-2.2c15.4-5.7 23.4-22.7 17.8-38.1zm-49.3 57.2 39.8 109.4h-79.6zm-82.4 226.4 21.3-58.5h122.2l21.3 58.5zm0 0"/></svg>